<?xml version="1.0" encoding="UTF-8"?>
<svg xmlns="http://www.w3.org/2000/svg" xmlns:xlink="http://www.w3.org/1999/xlink" width="52pt" height="52pt" viewBox="0 0 52 52" version="1.1">
<g id="surface421194">
<path style=" stroke:none;fill-rule:nonzero;fill:rgb(0.392157%,8.627451%,15.294118%);fill-opacity:1;" d="M 20 0.375 C 9.15625 0.375 0.375 9.15625 0.375 20 C 0.375 30.84375 9.15625 39.625 20 39.625 C 24.578125 39.625 28.789062 38.007812 32.125 35.375 L 33.875 37.125 C 33.140625 38.507812 33.398438 40.273438 34.5625 41.4375 L 43.75 50.6875 C 45.179688 52.117188 47.507812 52.117188 48.9375 50.6875 L 50.6875 48.9375 C 52.117188 47.507812 52.117188 45.179688 50.6875 43.75 L 41.4375 34.5625 C 40.265625 33.390625 38.507812 33.1875 37.125 33.9375 L 35.375 32.1875 C 38.023438 28.84375 39.625 24.601562 39.625 20 C 39.625 9.15625 30.84375 0.375 20 0.375 Z M 20 4 C 28.835938 4 36 11.164062 36 20 C 36 28.835938 28.835938 36 20 36 C 11.164062 36 4 28.835938 4 20 C 4 11.164062 11.164062 4 20 4 Z M 9.875 14.9375 C 8.84375 16.609375 8.25 18.578125 8.25 20.6875 C 8.25 26.742188 13.132812 31.625 19.1875 31.625 C 21.523438 31.625 23.71875 30.867188 25.5 29.625 C 25.023438 29.679688 24.492188 29.6875 24 29.6875 C 16.171875 29.6875 9.875 23.390625 9.875 15.5625 C 9.875 15.351562 9.867188 15.148438 9.875 14.9375 Z M 9.875 14.9375 "/>
</g>
</svg>
